<svg id="Layer_1" data-name="Layer 1" xmlns="http://www.w3.org/2000/svg" viewBox="0 0 144 72"><defs><style>.cls-1{fill:#231f20;}</style></defs><title>GiftTicket_Logo</title><path class="cls-1" d="M26.55,45.15c-0.72,0-1.53.09-2.38,0.22,0-2.74,0-5,0-7.07s0-4.37.27-6.8c0-1-1.53-1.71-2.34-1.71s-1.44,0-1.44.9c0,0.31.09,1,.09,1.48,0,3.69-2.34,9.9-6.93,9.9-2.88,0-5.09-4.05-5.09-10.53,0-7.88,4.73-16.61,10.36-16.61a2.5,2.5,0,0,1,2.74,2.52c0,2.88-3.29,5.54-5.58,5.54a3.51,3.51,0,0,1-1.71-.45c-0.32,0-.5,1-0.5,1.62a1.92,1.92,0,0,0,2,2.16c3.92,0,9.36-4.18,9.36-9.09a5.37,5.37,0,0,0-5.71-5.58c-9,0-14.68,11-14.68,19.94,0,8.42,3.15,14,8.74,14,2.74,0,5.08-1.62,7-4.41,0,1.08.09,2.56,0.09,4.5v0.45c-4.18,1.26-8.28,3.69-8.28,8.28a5,5,0,0,0,5,5.31c5.27,0,6.35-5.9,6.57-10.94,0.63,0,1.22-.09,1.89-0.09C27.55,48.66,28.67,45,26.55,45.15Zm-9,11.12c-0.9,0-1.62-.59-1.62-1.94,0-2.25,1.67-3.92,4.63-4.86C20.39,53.07,19.63,56.27,17.6,56.27Z"/><path class="cls-1" d="M30,22.15a2.72,2.72,0,0,0,2.74-2.74,2.72,2.72,0,1,0-5.44,0A2.75,2.75,0,0,0,30,22.15Z"/><path class="cls-1" d="M38.89,30.61l3.17,0.32a2.36,2.36,0,0,1,1.4.54c0.59,0,.85-2.2.85-2.83,0-.95-0.85-1.26-1.85-1.26-1.22,0-1.51.14-3.58,0.32V14.95a2.17,2.17,0,0,0-2.43-2c-0.63,0-1.44.18-1.44,0.5a3.51,3.51,0,0,1,.45,1.71V28c-0.27,0-.49,0-0.63,0a1.11,1.11,0,0,0-1,1.08c0,0.72.68,1.26,1.4,2,0.09,0.09.18,0.22,0.27,0.32s-0.22,5.51-.28,5.85c-0.41,2-1.22,4.86-3,4.86C31,42.09,31,40.42,31,40V28.58a2.16,2.16,0,0,0-2.43-2,1,1,0,0,0-1.17.76,10,10,0,0,1,.18,1.44v12c0,2.29,1.4,4.23,3.78,4.23A5.18,5.18,0,0,0,35.47,43V55.59c0,3.33,1,6.75,4.15,6.75,3.6,0,6-5.44,6-13S43,36.6,38.89,31.6v-1Zm3.29,18.77c0,5.72-.9,9.68-2.21,9.68-0.9,0-1.08-2-1.08-3.46V36.33A29.44,29.44,0,0,1,42.17,49.38Z"/><path class="cls-1" d="M58.74,22.64c-3.06.14-6.21,0.18-9,.18V14.95a2.17,2.17,0,0,0-2.43-2c-0.63,0-1.44.18-1.44,0.5a3.51,3.51,0,0,1,.45,1.71v7.61c-2.43,0-4.05-.14-4.05-0.14-1.3,0-.49,3,0.95,3,0,0,1.12.09,3.11,0.09V40.06c0,3.55,1.71,5,4.14,5,3.87,0,5.67-4,6.44-7a1.09,1.09,0,0,0,0-.31,2,2,0,0,0-1.58-1.85c-0.45,0-.9.41-1.08,1.35-0.41,2-1.22,4.86-3,4.86-0.95,0-1.53-.63-1.53-2.07V25.75c2.38,0,5,0,8.64-.09C59.59,25.61,60,21.29,58.74,22.64Z"/><path class="cls-1" d="M79.54,15.89c1.17,0,1.75-1.31,1.75-2.39C81.3,12.83,81,12,80.76,12a1.9,1.9,0,0,1-1.08.36c-0.85,0-5.4-.09-7.56-0.09C62.75,12.29,56,16.93,56,25.57a12.22,12.22,0,0,0,4,9.18,1,1,0,0,0,.68.22c1,0,2.16-1.48,2.16-2.66,0-.45-0.18-0.76-0.67-0.63a8.19,8.19,0,0,1-2.57-6.12c0-7,5.09-9.27,10.67-9.73h0V43a3.51,3.51,0,0,1-.45,1.71c0,0.32.81,0.5,1.44,0.5a2.17,2.17,0,0,0,2.43-2V15.76h0.07C75.81,15.8,78.91,15.89,79.54,15.89Z"/><path class="cls-1" d="M79.68,22.15a2.73,2.73,0,0,0,2.74-2.74,2.72,2.72,0,1,0-5.45,0A2.75,2.75,0,0,0,79.68,22.15Z"/><path class="cls-1" d="M138.28,22.59c-3.06.14-6.21,0.18-9,.18V14.9a2.17,2.17,0,0,0-2.43-2c-0.63,0-1.44.18-1.44,0.5a3.51,3.51,0,0,1,.45,1.71v7.61c-2.43,0-4.05-.14-4.05-0.14-1.3,0-.49,3,0.95,3,0,0,1.12.09,3.11,0.09,0,0,0,8.44,0,10.3a3.28,3.28,0,0,1-.08.72c-0.59,2.64-2.05,5.32-5.41,5.32a4.2,4.2,0,0,1-3.28-1.32,22.69,22.69,0,0,0,4.78-6.19l0.15-.3v0a8.53,8.53,0,0,0,.82-3.54c0-2.71-1.53-4.55-4.05-4.55-3.47,0-6.88,4.27-6.88,10a10.11,10.11,0,0,0,.88,4.24A6.84,6.84,0,0,1,109.64,42c-1.17,0-1.17-1.67-1.17-2.07V36c-0.35-4.25-3.38-3.57-3.38-3.57a19.66,19.66,0,0,0,2.56-1.88A12.88,12.88,0,0,0,110.59,27a3.5,3.5,0,0,0,.34-1.47,3,3,0,0,0-.17-1.23,2.39,2.39,0,0,0-1.26-1.44,1.61,1.61,0,0,0-1.78.41q0.34,0.59-.51,2.26a42.73,42.73,0,0,1-3.78,4.6,3.67,3.67,0,0,1-1.13,1.06c0-.41,0-2,0-4.06V14.9a2.17,2.17,0,0,0-2.43-2c-0.63,0-1.44.18-1.44,0.5a3.51,3.51,0,0,1,.45,1.71V36.71C98.28,39.35,96.65,42,93.29,42c-2.66,0-4.59-2-4.59-5.54,0-4.05,1.57-7.38,3.24-7.38s1.62,1.67,1.85,2.43c-0.27,1.58,2.84.67,2.84-1a4.36,4.36,0,0,0-4.28-4.41c-4.28,0-7.33,5.22-7.33,10.4,0,0.09-.07.55-0.11,0.72-0.41,2-1.22,4.86-3,4.86-1.17,0-1.17-1.67-1.17-2.07V28.58a2.16,2.16,0,0,0-2.43-2,1,1,0,0,0-1.17.76,9.73,9.73,0,0,1,.18,1.44v12c0,2.29,1.4,4.23,3.78,4.23,2.67,0,4.18-1.75,5.12-3.81A7.53,7.53,0,0,0,92.79,45a8.42,8.42,0,0,0,6.09-2.28v0.4a1.89,1.89,0,0,0,2.16,2c1.3,0,1.26-1.08,1.26-1.93V40h0V33.65A2.5,2.5,0,0,1,105,35.27a64.7,64.7,0,0,0,.29,7.19,3.23,3.23,0,0,0,1.12,1.68,4.8,4.8,0,0,0,3.2.87,9.57,9.57,0,0,0,4.94-2.17A7.67,7.67,0,0,0,119.91,45a8.09,8.09,0,0,0,6.34-2.61A3.67,3.67,0,0,0,130,45c3.87,0,5.67-4,6.44-7a1.09,1.09,0,0,0,0-.31,2,2,0,0,0-1.58-1.85c-0.45,0-.9.41-1.08,1.35-0.41,2-1.22,4.86-3,4.86-0.95,0-1.53-.63-1.53-2.07V25.7c2.38,0,5,0,8.64-.09C139.13,25.56,139.54,21.24,138.28,22.59Zm-19.86,6.53c0.59,0,.95.59,0.95,1.58a9.66,9.66,0,0,1-3.74,7.12c0-.27,0-1.58,0-1.86C115.54,34.07,116.21,29.12,118.42,29.12Z"/><path class="cls-1" d="M134.12,13.95v2.19h-0.68V13.95h-0.78V13.42h2.23v0.53h-0.78Zm3.65,2.19V14.21h0l-0.7,1.92H136.6l-0.7-1.92h0v1.92h-0.64V13.42h0.9l0.68,1.78,0.68-1.78h0.89v2.71h-0.64Z"/></svg>